# xmcd CD database file
#
# Track frame offsets:
#	150
#	14450
#	25100
#	37172
#	48820
#	59275
#	70005
#	81295
#	90750
#	103137
#	114450
#	125450
#	136325
#	146442
#
# Disc length: 2138 seconds
#
# Revision: 1
# Processed by: cddbd v1.5.1PL0 Copyright (c) Steve Scherf et al.
# Submitted via: CDex 1.51
#
DISCID=b408580e
DTITLE=Johnny Winter - Early Winter
DYEAR=1969
DGENRE=Blues
TTITLE0=ease my pain
TTITLE1=that's what love does
TTITLE2=crying in my heart
TTITLE3=the guy you left behind
TTITLE4=shed so many tears
TTITLE5=creepy
TTITLE6=gangster of love
TTITLE7=road runner
TTITLE8=leave my woman (wife) alone
TTITLE9=I can't believe you want to leave
TTITLE10=broke and lonely
TTITLE11=oh my darling
TTITLE12=be the light of the silvery moon
TTITLE13=five after four a.m.
EXTD=YEAR: 1969
EXTT0=
EXTT1=
EXTT2=
EXTT3=
EXTT4=
EXTT5=
EXTT6=
EXTT7=
EXTT8=
EXTT9=
EXTT10=
EXTT11=
EXTT12=
EXTT13=
PLAYORDER=
